<svg width="22" height="19" viewBox="0 0 22 19" version="1.1" xmlns="http://www.w3.org/2000/svg" xmlns:xlink="http://www.w3.org/1999/xlink">
<title>tg</title>
<desc>Created using Figma</desc>
<g id="Canvas" transform="translate(-3650 -8867)">
<g id="tg">
<use xlink:href="#path0_fill" transform="translate(3650 8867)" fill="#FFFFFF"/>
</g>
</g>
<defs>
<path id="path0_fill" fill-rule="evenodd" d="M 5.45777 10.9874L 0.388682 9.11049C -0.12621 8.91908 -0.130849 8.19838 0.382579 8.0016L 21.187 0.040662C 21.6279 -0.128283 22.083 0.255017 21.9871 0.71449L 18.2537 18.528C 18.1655 18.9489 17.6685 19.1393 17.3176 18.8864L 12.221 15.216C 11.9114 14.9933 11.4895 15.005 11.1934 15.2448L 8.36769 17.5294C 8.03981 17.7955 7.54542 17.6471 7.41993 17.2462L 5.45777 10.9874ZM 17.011 3.93519L 7.10377 9.98793C 6.72413 10.2203 6.54542 10.6749 6.66798 11.1012L 7.73927 14.8346C 7.8152 15.0988 8.2024 15.0719 8.23927 14.7985L 8.51783 12.7511C 8.57032 12.3659 8.75563 12.0104 9.04298 11.7453L 17.2192 4.20619C 17.3723 4.06556 17.189 3.82679 17.011 3.93519Z"/>
</defs>
</svg>
